Coordinates
version=1
nRows=5
nColumns=63
inDegrees=yes

Units are S.I. units (second, meters, Newtons, ...)
If the header above contains a line with 'inDegrees', this indicates whether rotational values are in degrees (yes) or radians (no).

endheader
time	pelvis_tilt	pelvis_list	pelvis_rotation	pelvis_tx	pelvis_ty	pelvis_tz	hip_flexion_r	hip_adduction_r	hip_rotation_r	knee_angle_r	knee_angle_r_beta	ankle_angle_r	subtalar_angle_r	mtp_angle_r	hip_flexion_l	hip_adduction_l	hip_rotation_l	knee_angle_l	knee_angle_l_beta	ankle_angle_l	subtalar_angle_l	mtp_angle_l	L5_S1_Flex_Ext	L5_S1_Lat_Bending	L5_S1_axial_rotation	L4_L5_Flex_Ext	L4_L5_Lat_Bending	L4_L5_axial_rotation	L3_L4_Flex_Ext	L3_L4_Lat_Bending	L3_L4_axial_rotation	L2_L3_Flex_Ext	L2_L3_Lat_Bending	L2_L3_axial_rotation	L1_L2_Flex_Ext	L1_L2_Lat_Bending	L1_L2_axial_rotation	L1_T12_Flex_Ext	L1_T12_Lat_Bending	L1_T12_axial_rotation	Abs_r3	Abs_r2	Abs_r1	Abs_t1	Abs_t2	neck_flexion	neck_bending	neck_rotation	arm_flex_r	arm_add_r	arm_rot_r	elbow_flex_r	pro_sup_r	wrist_flex_r	wrist_dev_r	arm_flex_l	arm_add_l	arm_rot_l	elbow_flex_l	pro_sup_l	wrist_flex_l	wrist_dev_l
      4.32203390	     -1.07477068	      2.31341358	     75.08462814	      0.32331707	      0.97638878	      0.44316789	     -1.02527304	      1.85692434	     15.33861569	      8.20972704	      0.14328677	     23.90643165	    -10.39232103	      0.00000000	      0.19206046	     -1.27816269	     -5.67338879	     13.91433951	      0.24285104	     27.08783918	    -11.34188752	      0.00000000	     -0.08303144	     -0.11599639	      3.07440115	     -0.15419769	     -0.15427520	      3.26655122	     -0.13641236	     -0.28203363	      3.26655122	     -0.09489664	     -0.28203363	      2.69010100	     -0.07710300	     -0.23653985	      2.49795093	     -0.04744417	     -0.17967842	      2.30580086	     -0.59308529	     -1.31217442	     17.09889687	      0.00000000	      0.00000000	     22.48231105	     -2.32125116	     -2.48630821	      2.79516640	    -20.81555984	     20.08408947	    106.57328918	     50.54239602	     23.94640219	      6.69272166	     51.93226616	     11.98146831	     66.64601857	    114.53362598	     55.28471461	      2.96891799	     12.17493497
      4.33898305	     -1.35413183	      1.76427611	     74.56137104	      0.32441899	      0.97523352	      0.44299189	     -0.34272399	      1.75245734	     15.76949275	      8.29875323	      0.14484057	     24.10792247	    -10.19961582	      0.00000000	      0.75838416	     -1.16091688	     -6.16660599	     14.06915228	      0.24555303	     26.80481360	    -11.66867680	      0.00000000	     -0.04239321	     -0.16561220	      3.20541426	     -0.07872844	     -0.22026423	      3.40575265	     -0.06964781	     -0.40266950	      3.40575265	     -0.04845120	     -0.40266950	      2.80473748	     -0.03936634	     -0.33771640	      2.60439909	     -0.02422348	     -0.25653330	      2.40406070	     -0.30281049	     -1.87343833	     17.82755249	      0.00000000	      0.00000000	     23.22043237	     -2.43443296	     -3.15486532	      4.24895453	    -20.54422156	     22.73160688	    101.06154045	     50.51249432	     22.83975349	      8.14624917	     52.75881081	     13.13022422	     68.92662202	    114.86000775	     54.28803841	      2.74258149	     11.23066905
      4.35593220	     -1.76576596	      1.32083842	     73.67289660	      0.32619079	      0.97412082	      0.44297817	      0.35921284	      1.54202624	     16.74463262	      8.55065358	      0.14923706	     24.28183340	    -10.35024448	      0.00000000	      1.12367878	     -0.91317021	     -7.03932166	     13.92561378	      0.24304781	     26.79007472	    -11.64178361	      0.00000000	     -0.01432112	     -0.22936588	      3.45254919	     -0.02659576	     -0.30505662	      3.66833352	     -0.02352818	     -0.55768020	      3.66833352	     -0.01636761	     -0.55768020	      3.02098054	     -0.01329860	     -0.46772290	      2.80519622	     -0.00818309	     -0.35528775	      2.58941189	     -0.10229436	     -2.59463271	     19.20204283	      0.00000000	      0.00000000	     23.95047955	     -2.62627701	     -3.75844160	      5.63646713	    -20.03801942	     25.19939331	     95.79135333	     46.47559264	     20.38122038	     10.75273277	     54.13646238	     13.98437877	     71.57983506	    115.42390417	     50.82514418	      1.05512936	      8.98365478
      4.37288136	     -2.19083585	      0.82611178	     73.21078625	      0.32734453	      0.97302434	      0.44311660	      1.05721878	      1.31471485	     17.12197284	      8.68024088	      0.15149878	     24.44889057	    -10.26467493	      0.00000000	      1.73533187	     -0.66622943	     -7.26480988	     13.90752082	      0.24273203	     26.92685309	    -11.90123295	      0.00000000	      0.02364287	     -0.28705134	      3.60490987	      0.04390717	     -0.38177828	      3.83021674	      0.03884287	     -0.69793662	      3.83021674	      0.02702144	     -0.69793662	      3.15429614	      0.02195477	     -0.58535509	      2.92898927	      0.01350954	     -0.44464252	      2.70368240	      0.16887865	     -3.24718214	     20.04942724	      0.00000000	      0.00000000	     24.70064737	     -3.02429720	     -4.35921797	      7.11184482	    -19.10711021	     26.96377698	     90.23218864	     46.75760904	     18.19101153	     12.30994618	     55.18933692	     14.81973039	     72.67645951	    115.94673074	     51.05802983	      1.50565077	      9.43634397
      4.38983051	     -2.43303952	      0.41031441	     72.81636351	      0.32810631	      0.97212340	      0.44346736	      1.57627918	      1.22678401	     17.40848008	      8.70842970	      0.15199077	     24.46984046	    -10.16926535	      0.00000000	      2.29488865	     -0.58784123	     -7.43138786	     13.91788615	      0.24291294	     27.26218428	    -12.15346950	      0.00000000	      0.05331742	     -0.31449981	      3.77063481	      0.09901577	     -0.41828474	      4.00629948	      0.08759518	     -0.76467483	      4.00629948	      0.06093647	     -0.76467483	      3.29930546	      0.04951055	     -0.64132800	      3.06364078	      0.03046557	     -0.48716020	      2.82797610	      0.38084097	     -3.55768470	     20.97113960	      0.00000000	      0.00000000	     25.30578462	     -3.48273576	     -4.74874861	      8.39103740	    -18.08279991	     28.16008248	     84.68816260	     47.66359884	     15.83430771	     13.32758412	     56.31666993	     15.75783733	     73.40750675	    116.22859035	     51.12040650	      2.01886098	     10.08604859
